<svg version="1.1" id="Capa_1" xmlns="http://www.w3.org/2000/svg" xmlns:xlink="http://www.w3.org/1999/xlink" x="0px" y="0px" viewBox="0 0 1200 1200" enable-background="new 0 0 1200 1200" xml:space="preserve">
<path d="M578.226,1086.926c2.071,2.201-0.06,5.149-2.751,4.725c-21.737-3.421-42.638-16.212-61.782-26.452&#10;&#9;c-21.087-11.28-40.938-25.208-60.393-39.07c-13.618-9.702-36.298-21.083-41.175-38.557c-4.895-17.541,5.798-36.163-1.501-53.684&#10;&#9;c-2.683-6.44,7.094-9.368,10.523-4.436c10.283,14.792,2.499,28.91,7.248,44.652c5.521,18.301,33.184,31.634,48.102,41.953&#10;&#9;c17.281,11.952,35.178,22.983,52.402,35.011C545.352,1062.557,564.365,1072.191,578.226,1086.926z M414.742,902.783&#10;&#9;c-3.276-13.354-11.139-23.858-19.89-34.046c-2.358-2.745-6.217,0.749-4.764,3.675c5.344,10.758,7.451,22.806,10.28,34.333&#10;&#9;C402.652,916.058,417.032,912.114,414.742,902.783z M434.394,890.016c1.315,25.557-0.219,55.09,8.925,79.137&#10;&#9;c3.634,9.557,8.254,21.317,19.939,21.376c24.886,0.125,16.476-37.74,15.974-52.835c-0.916-27.535-1.838-55.07-2.754-82.605&#10;&#9;c-0.716-21.517,0.426-34.316-20.039-44.549c-20.895-10.523-25.885-9.436-24.862,14.173&#10;&#9;C432.521,846.48,433.275,868.255,434.394,890.016z M991.565,658.325c-11.299,44.979-23.617,90.264-28.295,136.535&#10;&#9;c-1.022,10.11,1.041,20.666-5.198,28.873c-6.57,8.643-13.215,16.92-18.635,26.373c-10.689,18.648-15.897,39.284-19.081,60.393&#10;&#9;c-2.366,15.686-3.726,31.524-5.047,47.326c-0.745,8.909-1.43,17.822-2.116,26.735c-0.393,5.087,0.274,11.427-2.576,15.838&#10;&#9;c-6.035,9.341-21.71,17.997-30.479,24.78c-11.221,8.678-22.617,17.128-34.148,25.389c-26.64,19.085-53.936,37.282-81.877,54.409&#10;&#9;c-24.012,14.719-49.274,31.317-75.731,41.344c-14.815,5.614-33.966,3.201-49.69,2.956c-14.237-0.222-23.26-0.861-35.851-6.916&#10;&#9;c-27.531-13.239-53.89-28.969-79.699-45.267c-27.575-17.413-54.562-35.797-80.822-55.136c-10.988-8.091-21.854-16.353-32.519-24.865&#10;&#9;c-7.244-5.783-18.399-12.23-22.037-20.723c-3.525-8.23-1.841-24.574-2.553-33.497c-0.575-7.203-1.171-14.404-1.839-21.599&#10;&#9;c-1.234-13.281-2.632-26.573-4.973-39.712c-3.698-20.755-10.147-40.392-21.516-58.257c-5.419-8.517-15.807-17.028-18.61-26.443&#10;&#9;c-2.443-8.205-0.175-20.897-0.743-29.434c-0.687-10.336-1.832-20.633-3.442-30.866c-5.616-35.68-17.964-68.663-31.333-101.951&#10;&#9;c-11.882,7.243-2.59,28.967,5.77,36.823c3.39,3.186-0.115,9.985-4.759,8.175c-47.09-18.348-68.69-72.937-43.025-118.216&#10;&#9;c3.732-6.586,17.141-30.238,23.696-31.433c-54.233,9.884-105.947-84.42-58.549-122.257c5.288-4.221,14.035,1.125,9.968,7.691&#10;&#9;c-12.492,20.16-8.119,56.352,22.444,55.461c25.949-0.757,38.789-28.641,41.257-50.715c3.676-32.876-1.841-66.673-0.399-99.74&#10;&#9;c2.705-62.068,29.108-111.351,85.417-138.096c7.956-3.779,9.523-6.559,13.925-14.285c6.846-12.019,14.046-23.842,21.613-35.421&#10;&#9;c15.404-23.573,30.181-45.738,52.185-63.978c43.378-35.956,105.344-52.469,157.177-24.591c24.58,13.22,43.034,35.287,50.528,62.277&#10;&#9;c7.205,25.952,3.926,52.766,0.055,79.148c3.514-4.518,7.724-8.444,13.724-11.199c12.684-5.822,28.257-5.996,41.761-3.641&#10;&#9;c27.863,4.86,49.668,24.477,53.458,52.901c0.706,5.334-8.637,6.53-9.364,1.267c-0.202-1.457-0.461-2.885-0.774-4.285&#10;&#9;c-0.156-0.704-0.355-1.33-0.525-1.973c-2.958-9.316-10.355-13.635-18.963-14.665c-0.907,0.846-2.128,1.404-3.644,1.427&#10;&#9;c-8.11,0.122-15.987,1.35-23.127,3.944c-14.862,7.624-32.409,32.241-9.109,40.957c13.082,4.894,27.707,3.656,40.918,8.102&#10;&#9;c14.397,4.846,26.151,15.538,31.11,29.623c40.003,13.316,77.75,34.054,108.181,59.499c30.532,25.529,54.781,58.562,65.725,97.147&#10;&#9;c7.258,25.583,9.821,53.218,12.75,79.574c3.306,29.777,5.539,62.015-1.075,91.645c4.162,3.627,8.236,7.513,10.162,11.386&#10;&#9;C993.575,651.812,992.765,653.549,991.565,658.325z M685.356,297.504c1.973,0.247,5.337,13.688,6.316,17.226&#10;&#9;c0.321-0.099,0.655-0.169,1.001-0.204c17.135-1.722,32.613,2.748,47.879,10.344c7.121,3.544,2.849,13.012-3.694,13.638&#10;&#9;c-8.949,0.856-19.016,0.851-27.715,3.04c-1.093,0.19-2.186,0.379-3.28,0.569c3.826,0.78,7.432,1.902,10.331,3.224&#10;&#9;c2.859,1.304,1.002,4.989-1.427,5.268c-2.299,0.264-4.654,0.394-7.013,0.519c0.186,0.266,0.337,0.513,0.426,0.727&#10;&#9;c1.111,2.699,1.378,4.22,0.933,7.134c-1.215,7.962-9.421,12.198-15.212,16.458c-5.251,3.862-10.433,8.133-15.77,12.134&#10;&#9;c1.857,0.355,3.683,0.914,5.702,1.565c3.283,1.059,2.722,6.033-0.817,6.058c-24.63,0.179-21.047,24.538-16.874,42.874&#10;&#9;c8.268,3.532,16.377,8.201,23.072,11.099c18.342,7.938,36.5,16.293,54.449,25.081c17.158,8.401,34.097,17.256,50.824,26.495&#10;&#9;c-7.736-13.231-12.274-29.328-18.115-43.235c-1.52-3.62,1.034-8.851,4.294-10.553c11.607-6.057,22.309-3.435,33.13,3.409&#10;&#9;c4.225,2.672,18.599,15.61,23.472,6.784c2.885-5.224-5.333-21.502-7.603-25.96c-8.544-16.779-21.447-31.037-35.162-43.741&#10;&#9;c-9.571-8.864-18.503-16.941-20.674-30.34c-0.834-5.152,2.043-9.352,7.416-9.735c16.441-1.17,34.427,2.524,48.422,11.798&#10;&#9;c0.743-0.308,1.581-0.444,2.524-0.191c44.536,11.937,79.055,50.445,98.163,91.039c11.561,24.562,18.312,50.651,21.584,77.561&#10;&#9;c1.63,13.399,2.408,26.868,2.501,40.363c0.09,12.955,3.939,29.34-0.469,41.435c-0.159,0.433-0.355,0.853-0.569,1.266&#10;&#9;c6.426,5.694,12.771,11.483,18.952,17.44c-0.699-53.342-1.19-108.332-15.876-159.964c-10.508-36.937-34.117-68.585-63.12-93.221&#10;&#9;C835.579,325.83,759.782,303.23,685.356,297.504z M654.522,297.515c0.112,0.26,0.228,0.514,0.35,0.761&#10;&#9;c4.424,8.975,21.099,17.919,30.031,21.01c0.104-3.104-1.13-5.575-2.415-8.491c-2.863-6.494-5.756-13.097-8.883-19.504&#10;&#9;c-6.836-14.008-14.884-27.378-22.545-40.939c0.068,0.636,0.103,1.272,0.167,1.908c0.604,0.769,1.03,1.771,1.163,3.011&#10;&#9;C653.604,266.535,650.088,287.165,654.522,297.515z M654.581,324.342c0.365,19.167,0.774,38.337,1.088,57.506&#10;&#9;c2.377-2.241,4.87-4.307,7.454-6.26c4.673-9.739,10.975-18.97,18.297-27.685c-0.225-1.178-0.37-2.377-0.347-3.602&#10;&#9;c0.042-2.364,0.433-4.454,1.117-6.303c-1.646-1.647-3.834-3.254-5.113-4.531c-0.108-0.108-0.318-0.317-0.52-0.519&#10;&#9;c-4.626-1.972-9.115-4.228-13.432-6.896c-0.378-0.233-0.735-0.494-1.109-0.733C659.548,324.963,657.064,324.665,654.581,324.342z&#10;&#9; M681.693,361.887c0.992-0.744,1.985-1.487,2.973-2.236c1.416-2.128,3.035-2.303,4.859-0.522c0.044-0.031,0.079-0.026,0.121-0.051&#10;&#9;c-0.346-0.248-0.754-0.582-1.239-1.038c-0.608-0.572-1.26-1.053-1.901-1.545c-0.443,0.343-0.883,0.697-1.308,1.088&#10;&#9;C684.598,358.136,683.106,360.108,681.693,361.887z M307.906,487.38c5.611-8.618,6.846-18.602,11.103-27.462&#10;&#9;c5.64-35.583,5.711-73.562,15.856-108.065c9.434-32.085,30.002-54.363,58.674-70.439c5.475-3.07,9.735,4.726,4.826,8.256&#10;&#9;c-4.27,3.07-8.228,6.456-11.943,10.058c1.214,2.265,1.279,5.175-0.818,7.24c-13.122,12.913-21.231,30.357-22.529,48.805&#10;&#9;c-0.251,3.546,1.083,22.356,0.977,22.343c13.661,1.69,13.777-17.719,15.978-24.543c3.527-10.936,11.386-18.952,20.868-24.178&#10;&#9;c4.957-2.732,8.784,4.269,4.352,7.461c-9.152,6.589-10.427,18.17-13.394,28.304c0.561,0.63,1.047,1.344,1.44,2.116&#10;&#9;c58.101-48.519,142.813-79.942,219-75.19c0.283,0.018,0.506,0.109,0.743,0.185c3.479-7.968,33.778-48.529,16.693-50.073&#10;&#9;c-5.721-0.517-10.779,3.72-14.254,8.295c-3.477,4.577-6.259,9.886-10.95,13.209c-14.658,10.386-29.473-5.092-35.878-17.077&#10;&#9;c-6.927-12.962,11.67-23.716,19.617-11.47c1.337,2.059,2.635,3.941,4.679,5.183c2.641-24.926-16.759-58.504-35.79-73.658&#10;&#9;c-5.033-4.007,0.545-11.148,5.81-9.985c16.313,3.603,50.832,14.942,55.423,33.619c-5.508-22.41-15.575-42.734-37.121-53.595&#10;&#9;c-3.692-1.861-7.739-3.509-10.207-6.826c-2.469-3.317-2.324-8.987,1.422-10.736c1.92-0.897,4.169-0.523,6.242-0.087&#10;&#9;c10.461,2.201,43.697,10.046,47.841,21.639c-7.788-21.787-23.121-39.57-49.539-38.815c-7.004,0.2-6.548-9.77,0-10.589&#10;&#9;c70.469-8.815,84.216,76.26,81.323,127.005c-0.476,8.353-1.03,17.372-4.241,24.85c7.514,11.572,15.12,23.122,21.733,35.23&#10;&#9;c3.107,5.689,6.385,11.201,10.653,13.218c-8.571-9.335-5.591-26.43-1.837-37.279c14.26-35.649,45.063-44.683,80.061-38.931&#10;&#9;c-13.96-12.561-34.148-18.535-52.714-15.515c-19.529,3.176-25.438,15.465-35.862,30.523c-2.561,3.699-10.294,2.961-9.593-2.598&#10;&#9;c5.2-41.287,16.466-87.656-9.072-124.807c-23.162-33.694-67.379-47.163-106.464-39.902c-33.339,6.193-59.655,23.222-81.624,45.534&#10;&#9;c2.303-0.706,4.569-1.333,6.73-1.822c27.757-6.272,57.206-3.873,78.888,15.006c3.653,3.181-1.03,8.383-4.922,6.378&#10;&#9;c-18.325-9.439-52.685-7.804-71.807-2.304c-15.682,4.511-34.969,18.736-45.795,30.886c-13.09,14.692-16.918,35.842-30.518,50.478&#10;&#9;c-3.499,3.764-8.627,4.711-13.313,6.781c-44.354,19.597-69.84,58.903-75.17,106.621c-2.987,26.743-1.556,53.75-0.609,80.567&#10;&#9;c1.051,29.77,2.245,63.979-20.475,86.735c-15.902,15.927-40.824,21.607-59.55,7.144c-2.883-2.227-5.697-5.305-8.346-6.754&#10;&#9;c7.813,22.197,26.651,49.595,53.771,40.387c9.341-3.172,12.876-12.463,20.089-15.864c-4.936,2.327-10.244,3.934-16.045,4.491&#10;&#9;c-3.145,0.302-3.921-4.193-1.531-5.652C291.221,505.342,301.18,497.712,307.906,487.38z M532.455,442.664&#10;&#9;c-5.865,16.538-6.804,33.626-14.08,49.694c15.749-8.23,31.681-16.112,47.765-23.643c15.049-7.047,30.225-13.876,45.568-20.26&#10;&#9;c5.633-2.343,12.11-5.927,18.728-8.661c0.023-0.138-0.006-0.254,0.035-0.398c2.974-10.371,6.01-26.09,3.147-36.913&#10;&#9;c-2.291-0.353-4.478-1.545-5.951-3.824c-0.896-1.387-1.822-2.729-2.753-4.063c-2.761-0.719-5.76-1.034-8.458-1.513&#10;&#9;c-3.185-0.565-3.18-5.885,0.006-6.443c0.602-0.106,1.306-0.171,2.056-0.225c-4.105-4.686-8.689-8.743-14.009-11.889&#10;&#9;c-1.399-0.027-2.78-0.083-4.111-0.239c-2.194-0.257-3.297-1.807-3.348-3.385c-1.741-0.657-3.535-1.251-5.429-1.725&#10;&#9;c-14.008-3.501-28.084,1.079-41.866-4.069c-6.114-2.283-9.698-12.648-2.076-15.882c6.017-2.553,11.855-5.478,17.866-8.035&#10;&#9;c3.567-1.382,7.133-2.765,10.699-4.147c8.136-2.35,9.799-3.325,4.988-2.925c-13.051-6.016-36.96-0.732-49.636,3.154&#10;&#9;c-5.718,1.753-9.707-7.368-4.12-9.772c13.335-5.736,37.637-15.208,55.637-11.671c3.256-0.496,6.533-0.862,9.84-1.021&#10;&#9;c2.381-0.115,9.96,1.311,11.708,0.014c1.28-0.95,1.572-4.86,2.058-6.419c0.466-1.494,2.185-10.651,4.098-10.841&#10;&#9;c-74.215,5.818-149.726,28.41-207.339,77.349c-29,24.634-52.615,56.284-63.121,93.218c-14.594,51.308-15.071,105.896-15.964,158.898&#10;&#9;c4.154-3.959,43.246-42.951,46.864-40.781c-4.295-2.577-8.592-5.153-12.888-7.729c-2.283-1.369-4.617-2.781-6.29-4.853&#10;&#9;c-13.889-17.189-2.759-72.383,1.602-92.037c6.753-30.433,21.442-58.855,46.929-77.665c12.75-13.686,27.565-25.51,43.35-35.088&#10;&#9;c6.679-4.053,13.681,3.851,10.285,10.285c-10.014,18.975-19.821,38.045-29.651,57.109c-2.419,4.691-4.84,9.383-7.265,14.073&#10;&#9;c-8.048,15.559-14.027,21.066-12.187,39.124c17.47-11.948,21.803-37.963,45.156-44.019c12.871-3.333,20.99,7.058,21.835,18.972&#10;&#9;c0.677,9.539-2.806,19.237-5.052,28.377c-2.261,9.203-3.726,19.099-7.496,27.839c-1.153,2.671-2.622,5.157-4.291,7.52&#10;&#9;c4.165-2.559,8.321-5.136,12.514-7.633c13.013-7.752,26.251-15.124,39.6-22.293c-1.517-0.808-2.745-2.111-3.143-3.962&#10;&#9;c-4.684-21.784,4.702-38.714,14.003-57.587C522.159,428.788,535.374,434.433,532.455,442.664z M602.997,353.096&#10;&#9;c-1.633-0.306-3.3-0.511-4.978-0.67c4.119,0.588,8.209,1.614,12.229,3.473c1.916,0.887,3.788,1.859,5.608,2.908&#10;&#9;c-0.95-0.938-1.715-1.644-1.89-1.762C610.717,354.854,606.804,353.81,602.997,353.096z M341.397,653.659&#10;&#9;c0.265,0.083,0.537,0.195,0.802,0.28c-0.699-3.407-0.625-6.705,0.846-9.785c6.561-13.738,25.348-22.089,37.58-30.128&#10;&#9;c16.829-11.061,33.548-22.288,50.714-32.825c62.274-38.229,128.68-69.069,194.874-99.769c5.565-2.581,11.295-5.205,17.418-5.584&#10;&#9;c7.49-0.463,14.727,2.474,21.63,5.414c80.309,34.209,157.145,76.554,228.979,126.146c18.122,12.51,45.958,23.987,53.028,44.272&#10;&#9;c0.113,0.323,0.203,0.656,0.305,0.984c6.564-6.544,15.158-9.208,24.391-6.911c0.973,0.242,1.807,0.659,2.572,1.147&#10;&#9;c-2.026-2.363-4.421-4.502-6.517-6.554c-29.165-28.56-62.17-54.742-95.546-77.659c-21.13-14.508-42.173-27.644-64.345-40.461&#10;&#9;c-33.937-19.617-70.334-38.031-105.289-53.806c-7.499-3.384-42.755-28.752-49.618-21.535c-5.128,5.393-8.154-0.944-12.38-0.443&#10;&#9;c-4.183,0.496-8.109,1.961-12.939,3.499c-13.402,4.267-26.455,10.273-39.21,16.152c-24.735,11.402-48.643,24.498-72.583,37.456&#10;&#9;c-40.79,22.076-80.425,46.484-117.756,74.04c-20.044,14.796-39.4,30.546-57.772,47.378c-5.924,5.427-11.708,11.005-17.411,16.664&#10;&#9;c-2.682,2.661-4.406,5.517-5.416,8.519c0.44-0.017,0.878-0.028,1.314-0.035c0.827-0.605,1.796-1.096,2.918-1.426&#10;&#9;C329.897,646.365,336.234,648.708,341.397,653.659z M892.057,708.747c4.264-1.261,9.098-3.581,13.878-6.665&#10;&#9;c14.043-9.061,27.626-24.715,24.979-39.479c-23.625-17.638-47.84-34.225-72.615-49.83c-21.901-11.572-43.664-23.407-65.47-35.155&#10;&#9;c-23.347-12.578-45.619-27.164-69.577-38.604c-22.129-10.567-46.921-13.883-69.583-23.211&#10;&#9;c13.455,34.556,11.491,72.993,7.946,109.906c-0.236,2.457-0.519,5.028-1.904,7.071c-1.385,2.043-4.254,3.306-6.401,2.09&#10;&#9;c-1.539-0.871-2.247-2.675-2.83-4.345c-10.613-30.42-16.423-62.51-17.151-94.719c-0.181-7.985,1.816-16.425,3.892-22.897&#10;&#9;c-31.601,14.458-64.23,26.581-95.822,41.064c-27.708,12.702-55.091,26.178-81.989,40.547c6.567-3.508-2.444,54.558-8.966,31.49&#10;&#9;c-0.565-1.999-7.623-22.543-4.767-24.115c-5.552,3.055-11.049,6.206-16.551,9.349c0.011,0.055,0.051,0.105,0.06,0.161&#10;&#9;c0.787,4.975,0.458,9.986,0.839,15.009c0.325,4.295-0.662,31.717-9.383,14.498c-0.884-1.748-7.357-20.454-5.022-21.831&#10;&#9;c-19.787,11.67-39.213,23.946-58.171,36.949c-3.326,2.281,25.19,38.621,27.27,40.775c1.349,1.396,15.22,11.789,15.289,13.164&#10;&#9;c-0.186-3.665-0.533-8.34,0.714-11.902c4.832-13.809,82.193-10.064,97.319-11.35c35.5-3.017,70.93-6.877,106.251-11.538&#10;&#9;c0.463-0.061,0.875-0.006,1.243,0.128c14.695-1.896,32.31-7.796,45.358-7.474c12.89,0.318,31.221,3.94,45.58,5.659&#10;&#9;c42.057,5.036,84.134,10.001,126.339,13.633c16.346,1.407,41.348-1.853,56.471,3.546&#10;&#9;C885.724,692.974,894.094,702.783,892.057,708.747z M537.009,747.209c1.33,4.385-42.782,2.062-47.088,0.153&#10;&#9;c0.411,0.182,0.823,0.363,1.234,0.545c49.103,9.619,96.987,22.423,145.674,34.908c13.004,3.335,38.364-6.99,53.12-10.081&#10;&#9;c31.528-6.604,66.288-12.57,98.59-23.156c17.585-5.763,34.441-12.896,49.651-22.246c-56.051,3.718-111.775,11.799-167.801,16.042&#10;&#9;c-47.798,3.619-93.208-4.122-140.783-8.901c-24.896-2.501-50.278-9.567-75.407-7.613c19.738,11.387,55.54,12.88,78.844,17.854&#10;&#9;C534.652,745.056,536.532,745.637,537.009,747.209z M361.528,717.492c0.372,0.159,0.762,0.304,1.14,0.458&#10;&#9;c-0.139-0.373-0.296-0.74-0.429-1.114C362.009,717.06,361.777,717.285,361.528,717.492z M962.864,727.365&#10;&#9;c-2.61,1.532-6.103,1.619-9.052,0.426c-3.431,11.062-6.872,22.12-10.559,33.086c-2.269,15.889,7.152,31.898,0.704,47.711&#10;&#9;c-4.75,11.651-15.816,16.733-25.674,23.166c-1.746,1.139-26.494,49.993-27.209,21.154c-0.696-28.212,16.359-59.366,26.905-85.111&#10;&#9;c6.888-16.816,14.833-33.197,22.779-49.582c-3.522-2.598-7.062-5.174-10.499-7.869c-3.739,6.055-7.729,11.801-11.796,16.921&#10;&#9;c-19.669,24.759-49.317,39.056-77.919,52.541c-53.46,25.208-107.537,50.625-165.394,62.709c-5.343,1.116-10.933,2.215-15.227,5.584&#10;&#9;c-12.973,10.178-5.876,32.498-15.665,45.766c-8.837-12.442-2.43-32.979-14.449-42.384c-3.44-2.692-7.802-3.842-12.024-4.962&#10;&#9;c-75.507-20.012-148.298-50.241-215.768-89.604c-6.873-4.009-13.827-8.258-20.046-13.234c-0.7-0.02-1.414-0.099-2.153-0.312&#10;&#9;c-8.213-2.357-20.017-5.332-29.966-9.972c-0.3,14.62,1.226,28.711,4.565,42.847c0.371-10.518,0.387-21.153,1.066-31.194&#10;&#9;c0.193-2.846,4.23-2.84,4.421,0c1.032,15.294,1.879,30.613,3.096,45.893c0.467,5.867,1.637,11.955,2.033,17.958&#10;&#9;c2.359,5.424,4.724,11.446,3.193,12.001c0.888-0.322,1.733-0.463,2.537-0.471c0.072-5.311-0.62-11.39-0.481-13.855&#10;&#9;c0.557-9.87,1.286-19.73,2.288-29.565c0.378-3.703,5.381-3.695,5.757,0c1.694,16.624,2.594,33.019,3.211,49.718&#10;&#9;c0.493,13.36,4.456,27.675-1.606,39.908c-0.029,0.058-0.077,0.096-0.108,0.151c9.068,24.436,11.694,50.963,14.101,76.733&#10;&#9;c1.516,16.228-1.868,45.418,11.082,56.191c12.652,10.525,25.708,20.556,38.943,30.333c28.781,21.259,58.446,41.367,88.816,60.286&#10;&#9;c15.85,9.873,31.911,19.428,48.297,28.388c12.674,6.93,27.19,16.724,41.536,18.964c10.424,1.628,22.38,0.768,32.928,0.634&#10;&#9;c10.184-0.129,20.986,0.555,30.547-3.109c13.2-5.058,25.901-12.894,38.2-19.787c31.634-17.729,62.24-37.324,92.122-57.851&#10;&#9;c15.679-10.77,31.157-21.839,46.349-33.288c6.496-4.896,12.937-9.865,19.297-14.935c5.067-4.039,14.437-9.18,17.838-14.701&#10;&#9;c4.809-7.805,2.875-22.996,3.581-31.778c0.698-8.685,1.424-17.367,2.276-26.038c1.253-12.761,2.703-25.535,4.961-38.163&#10;&#9;c4.054-22.676,11.551-44.144,24.328-63.415c7.094-10.699,15.011-17.22,15.787-30.34c0.708-11.966,2.369-23.885,4.238-35.717&#10;&#9;C957.263,755.189,959.926,741.249,962.864,727.365z M978.905,657.324c0.021-0.586-0.067-1.133-0.127-1.69&#10;&#9;c-0.021,0.597-0.079,1.195-0.19,1.786c-1.102,5.907-2.21,11.812-3.311,17.718C976.991,669.146,978.709,662.846,978.905,657.324z&#10;&#9; M600.416,973.843c-1.031-26.231-1.033-52.502-3.477-78.611c-1.192-12.738-10.415-22.827-21.701-28.002&#10;&#9;c-18.098-8.299-23.082-4.302-22.579,14.073c1.097,40.072,2.977,80.117,4.833,120.159c0.753,16.253,3.834,65.411,29.591,63.954&#10;&#9;c22.8-1.29,15.938-51.659,14.849-65.159C601.223,991.462,600.761,982.655,600.416,973.843z M497.964,987.549&#10;&#9;c0.162,2.872,2.228,10.878,5.472,19.32c5.683,14.79,14.982,30.917,23.991,23.107c20.384-17.673,14.101-46.856,12.099-70.324&#10;&#9;c-2.149-25.195-2.596-50.482-3.327-75.745c-0.573-19.85,0.464-32.308-18.478-41.953c-4.12-2.098-18.656-11.107-24.374-6.945&#10;&#9;c-1.515,0.312-2.789,1.43-2.692,3.475c1.886,39.637,3.704,79.279,5.655,118.913C496.804,967.45,497.396,977.499,497.964,987.549z&#10;&#9; M889.356,891.722c-9.258,26.386-4.965,57.034-20.557,81.196c-14.561,22.564-44.289,37.006-66.578,50.804&#10;&#9;c-24.284,15.033-49.146,29.104-74.152,42.893c-19.347,10.67-46.768,30.021-70.664,26.28c-21.837-3.491-5.679-125.073-15.75-141.537&#10;&#9;c-10.274-16.798-11.421,20.399-12.088,27.704c-3.496,38.252-9.499,77.311-9.5,115.763c0,83.631,166.543-35.735,188.021-48.95&#10;&#9;c25.39-15.623,56.057-31.711,74.009-56.282c21.189-29.001,5.972-63.845,11.919-96.587&#10;&#9;C894.569,889.956,890.393,888.763,889.356,891.722z M694.58,1061.16c27.329,21.208,33.099-42.92,34.438-56.757&#10;&#9;c0.512-5.295,0.959-10.601,1.349-15.915c2.963-40.265,2.759-81.013,4.302-121.254c0.077-1.999-1.154-3.117-2.63-3.46&#10;&#9;c-5.424-4.154-18.932,4.17-23.068,6.281c-17.219,8.792-18.98,18.292-19.746,36.946c-1.634,39.782-1.44,79.608-2.972,119.396&#10;&#9;C685.906,1035.398,686.622,1054.983,694.58,1061.16z M884.164,671.235c-67.02-2.494-133.845-7.73-200.604-14.221&#10;&#9;c-2.916-0.283-3.609,4.64-0.697,5.15c66.659,11.654,133.885,19.692,201.301,25.623C894.666,688.711,894.899,671.635,884.164,671.235&#10;&#9;z M731.25,590.036c5.832-1.539,6.799-9.58,6.703-14.589c-0.152-7.866-1.488-14.894-6.283-21.177&#10;&#9;c-3.278-4.295-9.534-2.864-10.057,2.724C721.141,562.007,721.544,592.596,731.25,590.036z M642.784,649.071&#10;&#9;c-18.456-0.516-37.709,4.501-55.969,7.181c-20.218,2.968-40.455,5.802-60.672,8.774c-40.384,5.936-80.885,11.191-121.217,17.46&#10;&#9;c-4.087,0.635-3.17,7.645,0.984,7.27c40.649-3.668,81.211-8.784,121.727-13.696c19.216-2.33,38.407-4.895,57.595-7.444&#10;&#9;c19.252-2.557,40.543-3.132,58.96-9.145C649.83,657.63,648.878,649.241,642.784,649.071z M690.019,595.911&#10;&#9;c0.847,4.674,6.924,3.479,8.327,0c4.32-10.713,4.475-23.928,4.012-35.394c-0.399-9.873-1.26-22.116-8.78-29.097&#10;&#9;c-3.067-2.846-7.722-1.525-9.021,2.382c-3.018,9.072,0.811,19.597,2.222,28.824C688.473,573.711,688.024,584.91,690.019,595.911z&#10;&#9; M756.889,1028.441c20.444,9.51,30.197-27.199,34.858-70.909c5.385-50.501,3.969-110.346,4.382-119.05&#10;&#9;c0.097-2.052-1.191-3.171-2.717-3.477c-5.477-3.956-18.893,4.211-22.993,6.265c-32.295,16.174-20.3,68.515-21.502,97.845&#10;&#9;c-0.741,18.058-1.474,36.117-2.328,54.171C746.164,1002.274,746.866,1023.764,756.889,1028.441z M414.624,201.229&#10;&#9;c0.973-0.129,1.961-0.227,2.938-0.348c1.126,1.291,2.92,1.978,5.254,1.338c2.92-0.8,6.123-1.784,9.528-2.867&#10;&#9;c21.716-1.776,43.883-1.422,65.06,2.865c6.046,1.224,12.043,2.67,17.988,4.314c4.818,1.332,19.153,3.564,21.668,8.101&#10;&#9;c3.562,6.427,14.171,2.105,11.96-5.042c-7.531-24.339-27.251-34.536-51.606-36.282c-24.591-1.763-58.749,3.723-78.798,18.952&#10;&#9;c-0.95,0.722-1.588,1.648-1.97,2.641c-0.92,0.292-1.841,0.565-2.761,0.876C411.119,196.711,411.346,201.664,414.624,201.229z&#10;&#9; M819.561,991.162c15.49,12.437,28.759-30.503,29.23-38.732c0.573-9.995,1.173-19.987,1.673-29.985&#10;&#9;c0.611-12.204,10.308-117.192,2.656-118.416c-36.139-5.854-41.852,33.51-43.121,58.082c-1.651,31.967-1.391,64.028-3.27,95.957&#10;&#9;c-0.267,5.562-2.843,15.732-0.817,20.906C807.834,983.878,815.643,988.006,819.561,991.162z M397.193,252.075&#10;&#9;c18.903-13.564,42.334-19.021,65.497-16.836c0.609,0.057,1.263,0.141,1.9,0.215c-0.253,0.17-0.504,0.349-0.756,0.523&#10;&#9;c-21.303,3.355-40.554,15.789-53.977,32.231c-4.969,6.087,2.735,14.604,8.531,9.598c8.295-5.869,17.354-11.259,26.925-15.097&#10;&#9;c17.426-4.922,37.946-4.372,52.738,3.562c-3.263,1.706-6.349,3.781-9.182,6.218c-2.408,0.467-4.812,0.955-7.197,1.538&#10;&#9;c-1.175,0.141-2.349,0.234-3.527,0.421c-15.778,2.514-30.738,5.98-45.277,12.741c-3.481,1.619-4.354,4.551-3.634,7.278&#10;&#9;c-4.286,4.096,1.441,12.153,7.846,9.402c21.07-9.051,42.773-11.044,65.516-10.864c6.395,0.051,13.791,1.119,21.045,1.268&#10;&#9;c1.876,0.401,3.757,0.322,5.523-0.108c6.319-0.408,12.298-1.932,17.122-5.989c36.51-30.71-48.138-71.311-69.785-74.032&#10;&#9;c-32.36-4.066-62.89,6.347-87.592,27.194C383.04,246.29,390.866,256.615,397.193,252.075z" style="fill: rgb(255, 255, 255);"/>
</svg>