<svg version="1.1" id="Capa_1" xmlns="http://www.w3.org/2000/svg" xmlns:xlink="http://www.w3.org/1999/xlink" x="0px" y="0px" viewBox="0 0 1200 1200" enable-background="new 0 0 1200 1200" xml:space="preserve">
<path d="M1113.897,1118.536c-0.111,0.052-0.221,0.104-0.332,0.156c-2.262,1.061-4.843,1.769-7.342,0.96&#10;&#9;c-1.572-0.509-2.988-1.333-4.205-2.45c-1.531-1.405-2.352-3.472-2.62-5.471c-0.3-2.233,0.194-4.08,1.13-6.076&#10;&#9;c0.052-0.111,0.104-0.222,0.157-0.332c1.407-2.999,5.176-4.783,8.339-4.783c2.476,0,5.078,1.077,6.828,2.829&#10;&#9;c1.849,1.848,2.714,4.267,2.829,6.829C1118.82,1113.32,1116.797,1117.175,1113.897,1118.536z M1142.98,1145.448&#10;&#9;c-0.387-0.533-0.691-1.087-1.031-1.631c-11.666-5.294-21.356-2.473-34.156-2.194c-9.168,0.2-18.203-3.144-24.859-9.519&#10;&#9;c-8.216-7.869-12.276-22.334-10.028-34.692c-3.898-2.104-7.108-6.314-11.178-9.83c-22.668-19.585-45.06-39.484-67.111-59.762&#10;&#9;c-23.47-21.581-46.782-43.399-69.559-65.751c-3.148-2.672-6.12-5.677-8.951-8.849c-17.536-17.439-34.728-35.215-51.349-53.515&#10;&#9;c-0.098-0.108-0.132-0.224-0.204-0.335c-7.034,2.341-14.135,4.391-20.803,6.568c-17.462,5.701-35.044,10.995-52.577,16.467&#10;&#9;c-0.242,0.092-0.478,0.191-0.721,0.283c-0.775,0.294-1.544,0.585-2.313,0.859c-0.345,2.748-1.471,5.402-3.424,7.356l-0.333,0.332&#10;&#9;c-1.737,1.738-3.823,2.783-6.005,3.256c1.913,4.496,0.916,10.195-2.564,13.674c-4.868,4.868-12.451,4.494-17.367,0&#10;&#9;c-1.859-1.7-2.954-3.957-3.358-6.351c-4.788,2.69-10.852,1.842-15.04-1.986c-5.004-4.576-4.639-13.099,0-17.739&#10;&#9;c2.079-2.078,4.646-3.17,7.292-3.461c-2.253-4.56-1.355-10.571,2.263-14.189c4.853-4.853,12.414-4.48,17.314,0&#10;&#9;c1.911,1.747,2.995,4.087,3.366,6.556c1.511-0.751,3.135-1.129,4.774-1.221c17.411-10.032,35.002-19.731,52.649-29.333&#10;&#9;c-0.204-0.145-0.406-0.302-0.6-0.498c-25.393-25.723-50.779-51.453-76.167-77.18c-103.081-104.45-206.179-208.883-309.303-313.29&#10;&#9;c-68.876-69.732-137.706-139.509-206.53-209.291c-20.883-21.174-41.766-42.347-62.648-63.521l-0.01-0.009v0&#10;&#9;c-15.146-15.357-30.292-30.714-45.438-46.071c-18.213-18.466-36.424-36.932-54.636-55.398c-8.815-8.938-11.254-12.468-14.227-24.584&#10;&#9;c-2.676-10.905-5.351-21.81-8.027-32.715c-0.716-2.919,1.868-5.509,4.789-4.789c14.799,3.645,36.804,5.131,49.039,14.171&#10;&#9;c16.338,12.07,30.504,30.138,44.968,44.43c29.298,28.946,58.586,57.902,87.895,86.838&#10;&#9;c107.008,105.65,214.033,211.282,321.05,316.924c106.516,105.147,215.234,208.7,318.618,316.938&#10;&#9;c8.776-18.55,17.095-37.32,26.319-55.656c-4.816-4.613-4.426-12.973,0.157-17.557c2.078-2.078,4.645-3.17,7.291-3.461&#10;&#9;c-2.253-4.559-1.355-10.571,2.263-14.189c4.853-4.853,12.414-4.48,17.314,0c1.911,1.747,2.995,4.087,3.366,6.556&#10;&#9;c4.676-2.324,10.418-1.414,14.431,2.254c4.98,4.554,4.617,13.036,0,17.654l-0.332,0.332c-1.738,1.738-3.824,2.783-6.005,3.256&#10;&#9;c1.914,4.496,0.916,10.195-2.563,13.674c-4.869,4.868-12.452,4.494-17.368,0c-0.267-0.245-0.485-0.524-0.721-0.791&#10;&#9;c-5.279,26.044-13.999,51.2-20.739,76.891c0.731,0.091,1.467,0.424,2.138,1.075c69.198,67.195,135.04,137.832,197.825,211.043&#10;&#9;c0.301-0.084,0.606-0.17,0.889-0.244c9.206-2.394,19.069-0.979,27.128,4.102c23.746,14.972,6.67,45.072,21.419,64.425&#10;&#9;C1152.122,1145.471,1145.738,1149.249,1142.98,1145.448z M998.881,998.923c7.538,9.834,17.935,20.027,26.785,28.435&#10;&#9;c2.493,2.368,4.995,4.727,7.483,7.101c7.351,7.013,14.766,13.959,22.149,20.939c8.019,7.58,17.58,20.007,28.348,23.388&#10;&#9;c2.807,0.881,5.299-1.26,7.958-2.541c-2.102-2.456-4.219-4.898-6.333-7.345c-2.255,2.309-5.886,3.679-8.659,4.742&#10;&#9;c-1.747,0.67-3.473-1.689-2.447-3.182c1.233-1.793,2.526-3.529,4.041-5.121c0.634-0.666,1.409-1.385,2.261-1.987&#10;&#9;c-3.414-3.932-6.804-7.886-10.236-11.801c-0.023,0.047-0.024,0.093-0.05,0.14c-1.124,1.998-4.512,6.043-7.091,5.632&#10;&#9;c-1.595-0.259-3.126-1.902-2.044-3.597c1.396-2.186,2.992-4.575,5.307-5.863c0.154-0.086,0.309-0.11,0.464-0.165&#10;&#9;c-3.537-4.021-7.097-8.02-10.654-12.023c-0.873,0.514-1.792,0.966-2.663,1.448c-1.84,1.019-3.755,1.611-5.741,2.268&#10;&#9;c-2.464,0.815-4.458-2.638-2.547-4.375c1.546-1.405,3.002-2.782,4.788-3.88c0.456-0.28,0.91-0.577,1.369-0.871&#10;&#9;c-0.413,0.264-8.495-9.79-9.873-10.862c-3.52,2.663-6.973,5.43-10.671,7.844c-2.395,1.563-4.796-1.886-2.953-3.827&#10;&#9;c3.01-3.01,6.116-5.87,9.271-8.728c-2.609-2.77-5.891-9.392-9.393-10.739c-3.723-1.417-7.726,3.737-10.488,5.702&#10;&#9;c-1.574,1.12-3.36-1.342-2.023-2.622c2.522-2.417,5.047-4.67,6.514-7.911c0.162-0.358,0.314-0.748,0.241-1.134&#10;&#9;c-0.072-0.381-0.351-0.685-0.618-0.967c-0.67-0.708-6.368-7.662-7.036-7.383c-0.229,0.096-0.463,0.194-0.702,0.296&#10;&#9;C1008.891,991.956,1002.226,995.201,998.881,998.923z M996.359,977.268c-3.258,2.252-6.588,4.339-9.814,6.666&#10;&#9;c-0.53,0.383-1.085,0.456-1.595,0.335c3.581,3.801,7.173,7.59,10.744,11.4c0.098-0.157,0.18-0.318,0.333-0.456&#10;&#9;c2.325-2.082,4.323-4.36,6.529-6.544c0.981-0.971,2.671-1.981,3.382-3.155c0.673-1.111,0.919-1.922,2.009-2.893&#10;&#9;c-2.596-2.842-5.197-5.683-7.827-8.497C999.075,975.429,997.428,976.528,996.359,977.268z M928.848,913.837&#10;&#9;c-2.2,1.805-3.295,3.825-4.749,5.973c13.478,13.655,26.362,27.974,39.278,41.568c6.607,6.954,13.157,13.964,19.738,20.943&#10;&#9;c-0.178-0.72-0.065-1.492,0.586-2.074c2.974-2.656,5.732-5.479,8.649-8.175c0.855-0.79,2.073-1.911,3.37-2.652&#10;&#9;c-19.768-21.081-39.825-41.892-60.109-62.488C933.578,909.427,931.394,911.748,928.848,913.837z M895.618,873.107&#10;&#9;c-2.214,2.693-3.91,9.865-4.629,13.276c-0.927,4.401,3.454,6.091,6.869,8.96c7.298,6.131,14.295,12.613,21.08,19.305&#10;&#9;c2.162-1.47,4.226-2.591,5.985-4.735c2.095-2.553,4.428-4.747,6.934-6.789c-0.36,0.294-24.595-24.704-26.872-26.966&#10;&#9;C902.305,873.494,898.851,869.175,895.618,873.107z M940.847,761.883l0.332-0.332c3.495-3.495-1.931-8.933-5.432-5.432l-0.332,0.332&#10;&#9;C931.919,759.946,937.345,765.384,940.847,761.883z M932.199,779.177c3.495-3.495-1.931-8.933-5.432-5.432&#10;&#9;C923.272,777.24,928.698,782.678,932.199,779.177z M923.552,752.571c3.495-3.495-1.931-8.933-5.432-5.432&#10;&#9;C914.625,750.634,920.051,756.072,923.552,752.571z M914.24,770.53c3.495-3.495-1.931-8.933-5.432-5.432&#10;&#9;C905.313,768.593,910.739,774.031,914.24,770.53z M60.352,62.92c37.655,36.646,75.009,73.592,112.286,110.626&#10;&#9;c3.484,3.461,6.967,6.924,10.451,10.386c0.001-0.002,0.174,0.173,0.174,0.173c126.68,125.85,253.361,251.702,379.795,377.8&#10;&#9;c39.956,39.85,79.958,79.655,119.934,119.485c39.083,38.939,77.997,77.748,116.976,116.817c2.738,2.744,32.842,32.935,32.823,32.955&#10;&#9;c1.309-1.306,2.617-2.612,3.925-3.917c1.455-1.452,3.509-1.208,4.98,0c9.079,7.448,16.78,16.295,25.533,24.073&#10;&#9;c2.518-4.971,4.977-9.97,7.38-14.997c-61.624-57.325-120.844-117.371-180.856-176.377&#10;&#9;C588.578,556.53,483.656,452.855,378.683,349.232C326.88,298.094,275.089,246.941,223.27,195.818&#10;&#9;c-26.592-26.234-53.192-52.461-79.787-78.691c-13.494-13.309-26.408-28.173-40.916-40.354c-11.123-9.338-28.663-11.725-43.54-14.793&#10;&#9;c0.023,0.109,0.045,0.22,0.068,0.329C59.526,62.378,59.958,62.536,60.352,62.92z M709.549,749.904&#10;&#9;c2.827,2.934,8.525,8.051,11.454,11.017c-0.905-0.916,2.225-11.619,2.556-13.146c1.049-4.846,2.287-9.703,4.779-14.037&#10;&#9;c0.051-0.089,0.124-0.131,0.179-0.212c-3.403-3.376-6.797-6.763-10.207-10.131c-1.282-1.266-2.56-2.536-3.841-3.803&#10;&#9;C714.044,723.239,707.275,747.544,709.549,749.904z M735.756,740.713c-0.116-0.116-0.233-0.232-0.35-0.347&#10;&#9;c0.008,0.1,0.018,0.197,0.025,0.297C735.54,740.671,735.647,740.696,735.756,740.713z M140.144,148.198&#10;&#9;c0,0-4.137,20.229-4.137,20.229c2.912,2.948,5.825,5.896,8.738,8.844c-1.283-1.299,1.692-12.562,2.056-14.561&#10;&#9;c0.187-1.029,0.286-1.961,0.303-2.816C147.207,154.712,144.322,152.347,140.144,148.198z M98.194,130.156&#10;&#9;c4.227,4.279,8.455,8.557,12.682,12.835l6.505-17.349C98.53,107,79.637,88.402,60.652,69.905c1.797,8.959,3.665,18.051,6.893,26.162&#10;&#9;C72.799,109.266,88.346,120.188,98.194,130.156z M162.306,195.044c4.307,4.357,8.612,8.716,12.918,13.074l6.135-18.867&#10;&#9;c-8.23-8.22-18.019-16.01-25.495-24.704c-1.89,6.618-2.35,14.592-1.439,21.425c0.351,2.684,2.123,4.384,4.101,5.952&#10;&#9;C159.809,192.943,161.18,193.905,162.306,195.044z M647.632,686.616c18.056,18.287,36.112,36.574,54.169,54.86&#10;&#9;c-1.388-1.406,5.322-21.91,6.73-26.61c0.088-0.292,0.25-0.517,0.402-0.752c-24.908-24.618-49.794-49.258-74.667-73.911l8.552,8.649&#10;&#9;l-7.547,25.238C639.392,678.265,643.511,682.442,647.632,686.616z M781.391,911.008c1.141,0.544,2.216,1.265,3.197,2.14&#10;&#9;c17.626-7.515,35.603-14.175,53.176-21.858c14.115-6.172,29.012-13.972,44.072-18.357c2.648-2.335,4.718-4.906,6.589-7.68&#10;&#9;c8.659-27.985,18.839-55.49,26.417-83.843c0.197-0.74,0.591-1.224,1.045-1.592c-2.297,0.767-4.755,0.818-7.101,0.225&#10;&#9;c-13.13,25.87-24.215,52.714-37.453,78.534c-1.108,2.162-3.832,2.025-5.452,0.703c-9.397-7.669-17.338-16.823-26.474-24.758&#10;&#9;c-2.31,2.317-4.619,4.633-6.929,6.95c8.858,8.21,17.679,16.457,26.467,24.743c1.529,1.441,1.216,4.308-0.683,5.298&#10;&#9;C832.716,884.839,807.221,898.243,781.391,911.008z M745.9,928.005c-3.495,3.495,1.931,8.933,5.432,5.432&#10;&#9;C754.828,929.942,749.402,924.504,745.9,928.005z M755.213,910.046c-3.495,3.495,1.931,8.933,5.432,5.432&#10;&#9;C764.14,911.983,758.714,906.545,755.213,910.046z M763.86,936.653c-3.495,3.495,1.931,8.933,5.432,5.432&#10;&#9;C772.787,938.589,767.361,933.151,763.86,936.653z M772.839,919.026c-0.003,0.003-0.332,0.332-0.332,0.332&#10;&#9;c-3.611,3.612,2.362,9.017,5.728,5.065C781.495,920.593,776.42,915.446,772.839,919.026z M1138.729,1136.71&#10;&#9;c-4.313-14.234,0.834-30.674-8.55-43.13c-2.739-3.635-6.626-6.681-10.954-8.144c-1.49-0.503-10.069-2.064-7.426,2.187&#10;&#9;c0.383,0.617,4.109,0.967,4.895,1.264c3.906,1.479,7.327,4.323,9.572,7.83c1.417,2.213-1.633,4.105-3.402,2.625&#10;&#9;c-5.008-4.191-11.574-7.438-18.074-4.63c-2.864,1.237-5.292,3.267-8.123,4.552c-2.446,1.11-5.535,0.509-7.699,1.622&#10;&#9;c-0.806,0.415-1.302,1.243-1.716,2.048c-3.133,6.094-4.854,15.084-0.672,21.124c0.593,0.856,1.197,1.708,1.906,2.491&#10;&#9;c9.336,10.329,19.936,8.228,32.209,7.541C1126.732,1133.754,1133.06,1134.467,1138.729,1136.71z M1126.764,1112.787&#10;&#9;c0.092,4.238-2.718,8.468-6.342,10.598c-1.899,1.115-4.255,1.617-4.762,4.113c-0.432,2.126,1.151,4.075,3.263,4.357&#10;&#9;c4.399,0.587,8.86-3.574,11.049-6.967c2.365-3.667,2.529-8.618,1.225-12.7C1130.444,1109.833,1126.707,1110.155,1126.764,1112.787z" style="fill: rgb(255, 255, 255);"/>
</svg>